<?xml version="1.0" standalone="no"?>
<!DOCTYPE svg PUBLIC "-//W3C//DTD SVG 20010904//EN"
 "http://www.w3.org/TR/2001/REC-SVG-20010904/DTD/svg10.dtd">
<svg version="1.0" xmlns="http://www.w3.org/2000/svg"
 width="512.000000pt" height="512.000000pt" viewBox="0 0 512.000000 512.000000"
 preserveAspectRatio="xMidYMid meet">
<metadata>
Created by potrace 1.11, written by Peter Selinger 2001-2013
</metadata>
<g transform="translate(0.000000,512.000000) scale(0.100000,-0.100000)"
fill="#000000" stroke="none">
<path d="M2123 4007 c-220 -128 -411 -241 -422 -251 -20 -19 -21 -27 -23 -474
l-3 -456 -392 -224 c-277 -160 -394 -232 -402 -249 -7 -16 -11 -176 -11 -498
l0 -474 23 -25 c24 -27 808 -481 848 -491 19 -5 107 41 418 219 216 125 395
226 397 226 2 0 173 -97 381 -217 207 -119 389 -221 403 -226 25 -9 64 10 436
224 225 128 421 246 437 260 l27 27 0 476 c0 325 -3 483 -11 499 -8 18 -123
89 -403 249 l-391 225 -5 461 c-3 288 -9 464 -15 470 -5 5 -196 116 -423 246
-276 158 -421 236 -440 235 -16 0 -188 -94 -429 -232z m752 -112 c171 -98 314
-181 318 -185 8 -7 -618 -374 -638 -373 -18 0 -646 365 -640 371 13 13 640
370 645 367 3 -1 145 -82 315 -180z m-985 -363 c0 -5 -13 -21 -30 -37 l-30
-29 0 52 0 53 30 -16 c17 -9 30 -19 30 -23z m1390 -14 l0 -52 -30 29 c-16 16
-30 32 -30 37 0 6 45 36 58 38 1 0 2 -23 2 -52z m-1205 -85 c19 -9 35 -19 35
-22 0 -4 -63 -69 -140 -146 l-140 -140 0 60 0 60 102 102 c57 57 104 103 105
103 1 0 18 -8 38 -17z m1104 -85 l101 -98 0 -62 0 -63 -140 140 c-77 77 -140
142 -140 146 0 7 62 38 72 36 4 -1 52 -46 107 -99z m-890 -39 l34 -21 -234
-234 c-129 -129 -240 -234 -246 -234 -9 0 -13 16 -13 47 l0 48 207 207 c114
115 210 208 213 208 3 0 20 -9 39 -21z m783 -186 l208 -208 0 -47 c0 -32 -4
-48 -13 -48 -6 0 -117 105 -246 234 l-234 234 34 21 c19 12 36 21 39 21 3 0
98 -93 212 -207z m-592 29 l0 -47 -207 -207 -207 -207 -38 22 -39 21 237 237
c131 131 241 236 246 233 4 -3 8 -26 8 -52z m602 -439 l-37 -23 -207 208 -208
207 0 46 c0 25 3 49 7 53 4 4 114 -100 245 -231 l238 -238 -38 -22z m-602 114
l0 -52 -103 -103 -102 -102 -33 20 c-17 11 -32 23 -32 27 0 10 252 263 262
263 5 0 8 -24 8 -53z m299 -81 l134 -134 -40 -20 -40 -21 -101 102 -102 102 0
53 c0 28 3 52 8 52 4 0 67 -60 141 -134z m-699 -238 c254 -146 316 -185 305
-194 -8 -6 -154 -91 -324 -188 l-310 -177 -320 183 c-176 101 -319 186 -318
190 3 10 618 366 635 367 7 1 156 -81 332 -181z m1602 2 c172 -99 314 -184
315 -188 2 -4 -142 -89 -318 -190 l-320 -183 -317 181 c-174 100 -320 185
-324 188 -6 7 618 371 639 371 6 1 152 -80 325 -179z m-1206 -47 c-4 -4 -43
12 -55 23 -3 3 9 18 25 35 l29 31 3 -42 c2 -23 1 -44 -2 -47z m214 27 c0 -6
-44 -30 -55 -30 -3 0 -5 21 -5 47 l0 47 30 -29 c17 -16 30 -32 30 -35z m-1601
-337 c5 -4 -50 -63 -58 -63 -5 0 -6 81 -2 98 1 2 44 -23 60 -35z m1386 -61
c-3 -3 -20 8 -37 25 l-31 31 34 21 34 21 3 -46 c2 -25 1 -49 -3 -52z m213 65
c10 -8 7 -16 -14 -39 -15 -15 -31 -28 -36 -28 -4 0 -8 23 -8 50 0 49 1 50 23
39 12 -6 28 -16 35 -22z m1402 -17 c0 -27 -4 -50 -8 -50 -15 0 -67 63 -56 67
6 2 20 10 30 18 30 23 34 18 34 -35z m-2916 -251 c-76 -76 -141 -139 -144
-139 -3 0 -4 25 -3 56 l1 57 103 103 102 103 40 -21 40 -20 -139 -139z m1204
78 l103 -103 -3 -57 -3 -57 -138 138 -139 139 34 21 c18 12 35 22 38 22 3 0
52 -46 108 -103z m499 82 l35 -22 -139 -139 -138 -138 -3 57 -3 57 103 103
c56 57 104 103 107 103 2 0 19 -10 38 -21z m1106 -85 l107 -107 0 -53 c0 -30
-3 -54 -7 -54 -11 0 -273 264 -273 276 0 5 15 18 33 27 17 8 32 16 33 16 0 1
49 -47 107 -105z m-2699 -295 c-146 -147 -242 -235 -248 -229 -5 5 -10 26 -11
47 -1 37 6 45 209 250 l209 212 40 -21 40 -20 -239 -239z m1196 -186 c0 -23
-5 -45 -11 -49 -10 -6 -479 451 -479 467 0 4 15 16 33 28 l32 20 213 -212
c209 -209 212 -212 212 -254z m413 185 c-143 -143 -241 -234 -250 -231 -8 3
-13 21 -13 46 0 41 4 46 212 254 l211 212 39 -22 38 -22 -237 -237z m1197
-178 c0 -81 -11 -74 -262 177 l-238 238 38 22 37 23 213 -213 c197 -196 212
-214 212 -247z m-2412 279 l3 -44 -210 -209 -209 -209 -37 23 -37 23 233 233
c129 129 238 233 244 231 5 -2 11 -23 13 -48z m410 -182 l234 -234 -38 -22
-37 -22 -209 208 -208 208 0 47 c0 32 4 48 13 48 6 0 117 -105 245 -233z
m1192 181 l0 -53 -207 -201 -207 -202 -33 16 c-18 9 -33 20 -33 26 0 15 452
466 467 466 9 0 13 -17 13 -52z m409 -182 l234 -234 -34 -21 c-19 -12 -36 -21
-39 -21 -3 0 -99 94 -213 208 -201 202 -207 209 -207 248 0 38 6 54 19 54 3 0
111 -105 240 -234z m-2009 -139 l0 -52 -104 -104 c-98 -97 -105 -102 -127 -91
-56 29 -57 27 83 167 73 73 136 133 140 133 5 0 8 -24 8 -53z m420 -217 c0 -3
-16 -14 -35 -25 l-36 -19 -99 99 -100 100 0 60 0 60 135 -135 c74 -74 135
-137 135 -140z m1082 57 l-99 -99 -34 17 c-19 10 -36 19 -39 22 -2 2 57 64
130 139 l135 134 3 -57 3 -57 -99 -99z m398 78 c74 -74 132 -136 130 -138 -3
-3 -20 -12 -39 -22 l-34 -17 -103 103 -104 104 0 52 c0 29 3 53 8 53 4 0 68
-61 142 -135z m-1900 -240 c0 -48 -11 -56 -46 -31 -18 14 -18 15 10 45 17 17
31 31 33 31 2 0 3 -20 3 -45z m209 -18 c-2 -2 -16 -11 -31 -20 l-28 -17 0 52
0 52 31 -32 c18 -18 30 -34 28 -35z m1391 8 l0 -45 -27 17 c-16 9 -30 18 -32
19 -3 3 50 53 57 54 1 0 2 -20 2 -45z m191 19 c24 -25 24 -26 5 -40 -35 -25
-47 -18 -44 26 1 22 5 40 8 40 4 0 17 -12 31 -26z"/>
</g>
</svg>
