<?xml version="1.0" standalone="no"?>
<!DOCTYPE svg PUBLIC "-//W3C//DTD SVG 20010904//EN"
 "http://www.w3.org/TR/2001/REC-SVG-20010904/DTD/svg10.dtd">
<svg version="1.0" xmlns="http://www.w3.org/2000/svg"
 width="260.000000pt" height="260.000000pt" viewBox="0 0 260.000000 260.000000"
 preserveAspectRatio="xMidYMid meet">
<metadata>
Created by potrace 1.11, written by Peter Selinger 2001-2013
</metadata>
<g transform="translate(0.000000,260.000000) scale(0.100000,-0.100000)"
fill="#000000" stroke="none">
<path d="M1160 2293 c-282 -42 -477 -193 -535 -414 -10 -36 -14 -94 -12 -174
3 -104 7 -129 30 -185 51 -120 132 -213 241 -276 34 -19 169 -69 307 -114 259
-84 314 -111 345 -171 23 -46 15 -136 -17 -183 -75 -111 -321 -111 -435 -1
-18 18 -53 90 -58 121 -2 16 -5 53 -5 82 l-1 52 -230 0 -230 0 0 -191 0 -191
38 2 c90 4 96 2 116 -43 29 -63 148 -176 231 -219 111 -58 200 -79 350 -83
160 -5 271 17 389 74 222 109 339 298 339 551 0 194 -91 360 -247 449 -46 27
-518 191 -548 191 -29 0 -116 55 -138 87 -35 51 -35 136 0 181 43 53 102 76
200 75 178 -1 290 -100 290 -255 l0 -63 222 1 c123 1 226 2 231 3 4 1 6 85 5
189 l-3 187 -59 0 c-58 0 -59 1 -83 39 -85 133 -240 230 -433 270 -60 12 -241
18 -300 9z"/>
</g>
</svg>
