<?xml version="1.0" standalone="no"?>
<!DOCTYPE svg PUBLIC "-//W3C//DTD SVG 20010904//EN"
 "http://www.w3.org/TR/2001/REC-SVG-20010904/DTD/svg10.dtd">
<svg version="1.0" xmlns="http://www.w3.org/2000/svg"
 width="262.000000pt" height="262.000000pt" viewBox="0 0 262.000000 262.000000"
 preserveAspectRatio="xMidYMid meet">
<metadata>
Created by potrace 1.11, written by Peter Selinger 2001-2013
</metadata>
<g transform="translate(0.000000,262.000000) scale(0.100000,-0.100000)"
fill="#000000" stroke="none">
<path d="M1155 2531 c-82 -48 -226 -132 -320 -185 -93 -54 -173 -103 -177
-110 -4 -6 -8 -168 -8 -361 l0 -350 -291 -165 c-159 -91 -298 -172 -308 -181
-17 -16 -18 -46 -19 -395 -1 -209 1 -384 5 -390 9 -13 615 -362 655 -378 23
-9 50 4 270 129 133 76 271 156 304 176 34 21 66 34 70 29 5 -4 34 -21 64 -38
30 -16 127 -72 215 -123 88 -50 185 -106 215 -122 30 -17 64 -36 75 -44 11 -7
30 -13 42 -13 23 0 651 354 665 374 4 6 8 187 8 401 l0 390 -43 26 c-23 15
-161 94 -307 177 l-265 151 0 348 1 348 -27 25 c-15 14 -53 39 -85 56 -33 17
-167 93 -298 168 -132 76 -251 139 -265 141 -19 3 -68 -20 -176 -84z m314
-120 c148 -85 184 -106 278 -158 35 -19 65 -38 68 -43 7 -11 -466 -285 -490
-283 -17 1 -467 252 -487 272 -6 5 223 145 301 184 9 4 52 30 96 56 44 27 84
50 89 50 5 1 70 -34 145 -78z m-654 -340 c5 -9 -31 -41 -46 -41 -3 0 -5 10 -3
23 1 12 3 28 3 35 1 9 6 10 20 2 11 -5 22 -14 26 -19z m1075 -13 l0 -43 -27
28 c-27 26 -27 27 -8 42 30 22 35 19 35 -27z m-930 -66 l22 -18 -94 -94 c-132
-133 -125 -128 -121 -72 3 44 9 53 81 125 42 42 80 77 83 77 4 0 17 -8 29 -18z
m848 -64 c75 -75 82 -85 80 -120 -1 -21 -4 -38 -7 -38 -9 0 -216 209 -210 212
24 15 45 27 50 27 3 1 42 -36 87 -81z m-661 -44 c-79 -87 -363 -364 -371 -361
-6 2 -10 19 -8 38 3 29 27 58 165 196 l161 162 28 -17 c15 -9 26 -17 25 -18z
m743 -321 c0 -17 -5 -35 -11 -38 -9 -6 -369 344 -369 358 0 4 12 13 28 21 l27
15 163 -162 c142 -142 162 -166 162 -194z m-620 219 c0 -35 -10 -47 -159 -196
-155 -155 -161 -159 -186 -148 -15 7 -25 17 -23 22 5 16 348 360 358 360 6 0
10 -17 10 -38z m315 -143 c99 -100 175 -183 169 -185 -6 -3 -19 -11 -29 -18
-16 -11 -34 4 -176 145 -153 152 -159 160 -159 199 0 22 3 40 8 40 4 0 88 -81
187 -181z m-393 -231 c-75 -76 -79 -79 -105 -67 -15 7 -27 15 -27 19 0 3 46
53 103 110 l102 104 3 -44 c3 -42 1 -45 -76 -122z m360 2 l47 -46 -29 -17 -29
-18 -79 80 c-74 74 -79 83 -76 118 1 21 3 40 3 42 1 2 27 -22 59 -54 31 -32
78 -79 104 -105z m-544 -155 c106 -60 192 -112 192 -115 0 -3 -111 -68 -247
-146 l-246 -140 -248 140 c-136 77 -246 143 -243 146 3 3 114 68 247 146 l242
140 55 -30 c31 -17 142 -80 248 -141z m1184 29 c131 -75 240 -140 243 -144 3
-4 -106 -71 -242 -148 l-246 -141 -248 141 c-137 78 -245 145 -241 149 13 13
477 278 486 279 5 0 117 -61 248 -136z m-922 -9 c0 -35 0 -35 -24 -20 -23 15
-24 17 -8 35 25 27 32 24 32 -15z m145 15 c18 -20 18 -21 -1 -34 -10 -8 -19
-14 -20 -13 -1 1 -4 17 -7 35 -7 37 2 41 28 12z m-1231 -275 c17 -13 17 -15
-8 -40 l-26 -26 0 41 c0 43 5 47 34 25z m1086 -20 c0 -41 -6 -43 -32 -13 -18
21 -18 23 -2 35 28 20 34 16 34 -22z m154 22 c16 -12 15 -14 -8 -36 -15 -14
-26 -23 -27 -20 -1 2 -2 19 -4 37 -3 35 9 41 39 19z m1083 -22 c1 -41 -3 -42
-34 -13 l-24 22 23 13 c33 18 34 17 35 -22z m-2172 -67 c14 -6 25 -14 25 -17
0 -4 -47 -53 -105 -111 l-105 -105 0 46 c0 44 3 50 76 123 42 42 77 76 79 76
2 0 16 -5 30 -12z m857 -65 c74 -74 78 -80 78 -123 l0 -45 -110 110 c-106 106
-109 110 -87 122 12 7 26 12 32 13 5 0 45 -35 87 -77z m384 60 l25 -16 -103
-104 c-56 -56 -105 -103 -109 -103 -3 0 -5 20 -4 44 2 42 9 51 79 120 42 42
79 76 82 76 2 0 16 -7 30 -17z m851 -57 c70 -69 75 -78 78 -121 l3 -47 -21 19
c-11 10 -61 58 -110 106 -83 82 -88 89 -71 102 11 8 25 15 33 15 7 0 47 -33
88 -74z m-1921 -32 l24 -17 -181 -183 c-100 -101 -186 -181 -191 -178 -4 3 -8
21 -8 40 0 31 15 50 158 193 86 88 161 160 165 160 4 1 19 -6 33 -15z m601
-146 c143 -143 163 -167 163 -195 0 -17 -4 -35 -10 -38 -5 -3 -91 76 -191 176
l-181 182 23 18 c13 10 26 19 29 19 3 0 78 -73 167 -162z m628 150 c14 -6 25
-15 25 -19 0 -5 -81 -89 -179 -188 -136 -136 -182 -177 -190 -167 -27 32 -1
71 157 229 86 86 158 157 159 157 1 0 14 -5 28 -12z m607 -147 c138 -138 160
-165 163 -195 2 -22 -1 -36 -10 -39 -7 -3 -88 71 -191 175 l-178 181 23 18
c13 11 25 19 28 19 3 0 77 -72 165 -159z m-1696 16 c2 -29 -14 -48 -154 -189
-86 -87 -160 -158 -165 -158 -4 0 -19 7 -32 16 l-24 16 180 179 c100 99 184
177 187 174 4 -4 8 -21 8 -38z m319 -137 c98 -98 177 -181 175 -183 -8 -7 -48
-27 -54 -27 -3 0 -75 70 -160 156 -148 148 -156 159 -156 195 0 22 3 39 8 39
4 0 88 -81 187 -180z m921 139 c0 -31 -14 -48 -157 -191 -86 -87 -161 -158
-166 -158 -5 0 -18 7 -31 15 -21 16 -19 19 156 195 97 98 182 177 187 176 6
-2 10 -18 11 -37z m314 -139 c176 -176 179 -180 157 -195 -12 -8 -25 -15 -30
-15 -4 0 -79 71 -166 158 -140 140 -158 161 -156 187 4 43 5 45 10 45 3 0 86
-81 185 -180z m-1250 -290 l-25 -19 -79 79 c-75 75 -80 81 -81 125 l-2 47 106
-106 106 -107 -25 -19z m940 186 c0 -42 -4 -48 -81 -126 -80 -81 -81 -81 -102
-63 -12 10 -24 19 -26 21 -5 2 200 212 206 212 2 0 3 -20 3 -44z m-1240 -4 c0
-34 -9 -48 -72 -115 -40 -43 -80 -77 -88 -77 -8 0 -24 7 -34 15 -18 14 -13 20
80 114 54 55 102 100 107 101 4 0 7 -17 7 -38z m1465 -62 l100 -101 -25 -19
-25 -19 -79 79 c-72 71 -80 82 -81 119 -1 23 1 41 4 41 4 0 51 -45 106 -100z
m-1315 -205 c-20 -24 -30 -18 -30 20 l0 36 22 -20 c17 -17 19 -23 8 -36z
m1087 -12 c-3 -2 -15 1 -27 7 l-22 12 23 22 24 23 3 -30 c2 -16 1 -31 -1 -34z
m-1237 27 c0 -33 -3 -35 -30 -20 -19 10 -19 11 -2 29 24 27 32 25 32 -9z
m1384 -17 c-10 -7 -21 -13 -24 -13 -6 0 -6 39 -1 59 1 2 10 -4 22 -15 19 -17
19 -19 3 -31z"/>
</g>
</svg>
