<?xml version="1.0" standalone="no"?>
<!DOCTYPE svg PUBLIC "-//W3C//DTD SVG 20010904//EN"
 "http://www.w3.org/TR/2001/REC-SVG-20010904/DTD/svg10.dtd">
<svg version="1.0" xmlns="http://www.w3.org/2000/svg"
 width="1167.000000pt" height="1167.000000pt" viewBox="0 0 1167.000000 1167.000000"
 preserveAspectRatio="xMidYMid meet">
<metadata>
Created by potrace 1.11, written by Peter Selinger 2001-2013
</metadata>
<g transform="translate(0.000000,1167.000000) scale(0.100000,-0.100000)"
fill="#000000" stroke="none">
<path d="M3005 9710 c-10 -4 17 -78 111 -305 68 -165 128 -309 133 -320 5 -11
22 -51 39 -90 l30 -70 -989 -3 -989 -2 -1 -23 c0 -12 -2 -31 -4 -42 -13 -70
-19 -201 -20 -415 0 -238 7 -365 30 -520 2 -14 7 -45 10 -70 3 -25 8 -52 10
-60 2 -8 7 -35 10 -60 9 -60 77 -326 109 -420 253 -759 767 -1307 1516 -1615
l125 -52 -3 -109 c-2 -60 -4 -110 -5 -111 -1 -1 -72 23 -157 53 -85 29 -160
54 -166 54 -6 0 -34 -73 -63 -162 -29 -90 -60 -182 -69 -206 -9 -25 -11 -46
-6 -52 5 -5 210 -76 457 -158 366 -123 447 -147 448 -134 0 10 1 124 1 255 1
130 3 237 5 237 3 0 33 -25 69 -55 235 -199 581 -395 869 -490 l140 -47 0
-320 c0 -176 2 -323 5 -327 3 -4 52 -7 110 -6 101 0 105 -1 108 -23 3 -19 9
-22 40 -21 20 1 54 1 75 0 l37 -1 -5 -137 c-2 -76 -9 -172 -15 -213 -6 -41
-13 -89 -15 -106 -2 -17 -7 -37 -9 -45 -3 -8 -7 -30 -10 -49 -9 -65 -56 -231
-92 -329 -33 -89 -124 -281 -145 -307 -6 -8 5 -13 38 -17 27 -4 64 -9 83 -12
19 -2 53 -7 75 -10 139 -17 197 -25 225 -30 14 -2 49 -7 79 -10 30 -4 61 -8
70 -10 9 -1 41 -6 71 -9 116 -15 107 -5 107 -108 l0 -90 -71 6 c-68 7 -90 9
-181 21 -22 2 -62 7 -90 10 -27 3 -66 7 -85 10 -19 2 -60 7 -90 10 -30 3 -89
10 -130 15 -41 5 -100 12 -130 15 -30 4 -66 8 -80 10 -14 2 -54 6 -90 10 -36
4 -78 9 -95 11 -16 3 -48 7 -70 9 -56 5 -156 16 -183 20 -13 2 -53 7 -90 10
-37 4 -74 8 -82 10 -8 2 -49 7 -90 10 l-75 6 -12 -28 c-7 -15 -37 -89 -67
-163 -30 -74 -104 -259 -166 -410 -61 -151 -112 -279 -113 -284 -2 -9 0 -9 78
-20 28 -3 61 -8 75 -10 25 -5 156 -23 220 -31 41 -6 89 -12 145 -20 97 -14
243 -35 278 -40 42 -6 67 -9 187 -25 47 -6 96 -13 110 -15 14 -2 45 -7 70 -10
25 -3 56 -8 70 -10 14 -2 63 -9 110 -15 47 -6 96 -13 110 -15 33 -5 103 -15
137 -19 78 -11 201 -28 223 -31 14 -2 45 -7 70 -10 25 -3 104 -14 175 -24 72
-11 153 -22 180 -26 69 -8 115 -15 145 -20 14 -3 48 -7 75 -11 28 -3 61 -7 75
-9 14 -2 77 -11 140 -20 63 -9 162 -23 220 -31 58 -8 119 -17 135 -19 17 -2
50 -6 75 -10 25 -3 60 -8 78 -10 24 -3 140 36 430 142 218 80 444 162 502 183
250 89 315 113 319 117 4 3 -81 193 -200 448 -20 44 -50 109 -66 145 -17 36
-42 90 -56 120 -14 30 -39 85 -55 121 -17 36 -36 66 -44 66 -7 0 -96 15 -198
32 -102 18 -198 34 -215 37 -16 3 -120 20 -230 39 l-200 33 -63 68 c-157 167
-238 353 -277 632 -15 108 -6 370 16 457 l10 40 202 0 202 -1 5 369 5 369 70
29 c255 108 516 266 737 450 33 27 38 28 39 12 0 -10 1 -124 1 -255 1 -169 4
-235 12 -233 6 2 121 40 256 84 135 44 310 101 390 126 194 63 263 87 273 95
4 3 -11 69 -34 146 -22 76 -49 167 -59 202 -10 35 -20 65 -23 69 -3 3 -77 -20
-163 -51 -87 -31 -159 -54 -162 -52 -2 3 -6 53 -8 113 l-4 108 87 34 c208 79
437 203 623 337 52 37 100 73 106 78 6 6 33 29 59 51 65 53 221 209 265 264
19 24 40 48 45 55 40 43 157 209 210 298 60 99 189 373 216 458 4 14 17 50 29
80 43 113 114 411 135 570 3 25 8 58 11 74 15 93 28 319 28 491 0 196 -15 435
-29 472 -3 10 -214 13 -989 15 l-984 3 124 300 c69 165 128 309 133 320 73
167 72 165 53 166 -78 4 -5186 3 -5197 -1z m1910 -584 c-3 -36 -8 -73 -10 -84
-2 -10 -6 -43 -10 -73 -3 -30 -8 -65 -10 -79 -2 -14 -7 -45 -10 -70 -6 -47 -9
-65 -20 -140 -4 -25 -8 -56 -10 -70 -2 -14 -6 -45 -10 -70 -4 -25 -8 -56 -10
-70 -2 -14 -6 -43 -9 -65 -4 -22 -9 -56 -11 -75 -3 -19 -7 -44 -9 -55 -2 -12
-8 -48 -12 -80 -4 -33 -8 -62 -9 -65 -3 -11 -15 -88 -19 -120 -9 -59 -75 -449
-97 -565 -12 -60 -23 -123 -26 -140 -2 -16 -20 -100 -39 -185 -19 -85 -36
-164 -39 -175 -2 -11 -14 -54 -25 -95 -11 -41 -23 -86 -26 -100 -2 -14 -9 -38
-14 -55 -10 -34 -47 -213 -55 -271 -4 -22 -9 -50 -11 -64 -13 -60 -11 -329 3
-394 39 -190 119 -326 265 -447 33 -27 55 -49 50 -49 -28 0 -262 88 -358 135
-192 93 -324 206 -384 329 -27 54 -55 169 -46 185 2 3 7 30 10 60 4 29 8 56
10 60 2 3 7 35 10 70 4 36 8 67 10 70 2 3 7 37 11 74 3 37 8 76 10 85 3 17 12
101 21 182 2 25 6 65 9 90 3 25 7 70 10 100 3 30 8 75 10 100 3 25 8 72 10
105 7 91 13 163 20 235 3 36 7 92 10 125 2 33 7 107 10 165 4 58 9 132 10 165
2 33 7 130 11 215 11 202 11 970 1 1083 l-9 87 397 0 397 0 -7 -64z m-2454
-645 l575 -1 3 -142 c1 -79 3 -223 4 -321 l2 -179 140 6 c77 4 172 9 211 11
l72 5 5 -43 c5 -47 -1 -475 -7 -522 -6 -46 -16 -108 -21 -135 -3 -13 -7 -42
-11 -65 -3 -22 -14 -76 -24 -120 -17 -74 -43 -210 -54 -280 -4 -29 -8 -62 -22
-185 -7 -67 -7 -347 1 -412 l5 -48 -72 27 c-40 14 -77 29 -83 33 -5 4 -28 13
-49 20 -70 23 -280 135 -397 211 -377 249 -658 595 -818 1009 -18 47 -36 94
-41 105 -4 11 -17 52 -28 90 -17 60 -26 93 -38 150 -22 108 -34 168 -38 203
-3 23 -8 59 -11 80 -16 117 -22 452 -9 485 6 18 30 23 89 20 22 -1 299 -2 616
-2z m6988 -7 c15 -15 4 -475 -14 -559 -3 -11 -7 -38 -10 -59 -3 -22 -12 -71
-21 -110 -8 -39 -17 -81 -20 -92 -26 -129 -113 -362 -190 -511 -47 -92 -176
-296 -207 -328 -7 -7 -25 -30 -42 -51 -51 -67 -236 -247 -325 -316 -191 -148
-424 -275 -680 -371 l-65 -24 0 236 c0 207 -4 274 -20 381 -2 14 -6 41 -9 60
-7 44 -29 158 -54 275 -11 50 -23 112 -27 138 -3 27 -8 58 -11 70 -2 12 -6 49
-10 83 -3 33 -7 74 -9 90 -7 50 -4 419 4 466 0 4 27 6 59 4 31 -3 126 -8 210
-11 l152 -7 1 58 c3 303 12 580 19 584 11 7 1262 1 1269 -6z"/>
</g>
</svg>
